<?xml version="1.0" encoding="UTF-8"?>
<!-- Created with Inkscape (http://www.inkscape.org/) -->
<svg width="743" height="169" version="1.1" viewBox="0 0 743 169" xmlns="http://www.w3.org/2000/svg">
 <path d="m76.504 169.12c-21.55-2.6918-39.461-11.439-52.591-25.684-15.658-16.988-22.651-37.137-21.583-62.188 1.0105-23.704 7.8298-40.065 23.174-55.599 24.172-24.471 58.953-30.438 92.863-15.932 3.3986 1.4539 3.7985 1.9757 3.3274 4.3419-0.29452 1.4792-1.0863 11.914-1.7595 23.189s-1.3654 20.67-1.5381 20.877c-0.17274 0.20756-3.1442-1.7264-6.6034-4.2977-10.355-7.6974-16.045-10.027-25.48-10.43-9.4233-0.40288-15.474 1.1991-22.762 6.0264-10.06 6.6636-15.408 17.453-16.269 32.824-1.0958 19.562 6.166 34.338 20.428 41.564 5.1807 2.625 6.7461 2.9285 14.794 2.8681 10.152-0.0762 18.558-2.6753 23.598-7.2959 1.6254-1.4903 4.7729-6.9842 7.2395-12.637 10.257-23.505 24.364-55.203 31.598-71 4.2816-9.35 9.2643-20.262 11.073-24.25l3.2879-7.25 29.204 0.01232 3.1617 7.7438c1.739 4.2591 8.3929 19.669 14.787 34.244 6.3936 14.575 13.053 29.762 14.798 33.75 1.7454 3.9875 3.4772 7.25 3.8484 7.25 0.37122 0 0.4431-17.511 0.15972-38.913s-0.22305-40.077 0.13406-41.5l0.64929-2.587 15.731 0.00869c8.652 0.00478 17.981 0.28126 20.731 0.6144 4.792 0.58051 5.1429 0.84015 8.4357 6.2413 1.8896 3.0996 10.25 15.986 18.58 28.636 8.3292 12.65 18.708 28.76 23.064 35.8l7.9204 12.8 0.26085-42.05 0.26086-42.05h43.978l0.01 43.5 4.0153-6.6921c13.707-22.843 39.58-37.989 67.516-39.523 21.711-1.1917 43.732 7.0329 60.695 22.669 11.682 10.768 19.228 22.898 23.719 38.128l1.8923 6.418 0.0764-31.814 0.0765-31.814 38.75 0.35981c35.355 0.32829 39.144 0.52645 43.25 2.2617 6.3408 2.6798 15.084 8.6988 18.824 12.959 1.7466 1.9892 3.168 3.4886 3.1587 3.3319-9e-3 -0.15664-1.5767-4.1098-3.4832-8.7848s-3.4739-9.0714-3.4832-9.7699c-0.0132-0.99548 4.5645-1.2116 21.185-1l21.202 0.26989 2.4039 6.5c5.0131 13.555 15.423 39.533 16.154 40.311 0.66937 0.71287 10.695-23.428 17.054-41.061l2.2536-6.25h43.867l-0.70444 2.25c-2.551 8.1479-29.707 74.191-37.521 91.25-2.2017 4.8068-2.3058 6.2271-2.6944 36.75l-0.40425 31.75h-41.811v-27.364c0-15.05-0.42562-29.608-0.94582-32.351-1.4978-7.898-11.309-34.113-20.014-53.48l-2.5597-5.6943-3e-3 12.194c-3e-3 9.9626-0.42987 13.56-2.334 19.659-6.097 19.528-17.314 33.584-31.152 39.039-6.2426 2.4606-22.506 4.145-31.741 3.2875l-6.2504-0.58032v46.289h-43v-28.5c0-15.675-0.37013-28.5-0.82252-28.5-0.45238 0-2.0658 3.0375-3.5854 6.75-10.798 26.381-35.632 46.195-64.26 51.27-8.8834 1.5749-26.271 0.78721-35.332-1.6005-21.807-5.7468-41.392-20.655-50.914-38.756l-3.0475-5.7934-0.26931 22.315-0.2693 22.315-40.324 0.54085-9.4313-14.27c-9.3337-14.123-28.836-44.463-40.31-62.71l-5.9356-9.4399-0.26062 43.19-0.26063 43.19h-61.573c-33.865 0-61.423-0.38412-61.239-0.8536 0.18333-0.46948 3.8812-9.2445 8.2174-19.5l7.8841-18.646h16.866c10.145 0 16.866-0.38374 16.866-0.96298 0-1.2863-2.4697-7.5725-12.744-32.437-8.4087-20.351-8.6693-20.824-9.9133-18-0.70269 1.595-5.6142 13.25-10.915 25.9-12.416 29.632-21.469 50.534-24.982 57.677l-2.7921 5.6774-6.0773 1.0566c-17.117 2.9759-36.879 3.7347-51.077 1.9612zm346.74-50.982c-5.8546-2.898-12.73-10.142-15.961-16.816-2.3034-4.7584-2.7046-6.893-2.7398-14.575-0.0368-8.0566 0.28479-9.6813 3.0683-15.5 4.6413-9.7022 11.32-15.872 20.691-19.113l5.1994-1.7985-4.5 0.51042c-22.596 2.5629-38.421 8.3984-48.209 17.777-11.42 10.943-11.52 23.16-0.27872 34.085 8.589 8.3476 30.664 17.11 43.987 17.459 2.9021 0.0761 2.861 0.01-1.2581-2.029zm49.711-1.5499c21.338-6.1836 35.003-18.224 35.003-30.841 0-12.64-14.043-24.872-35.531-30.95-7.8017-2.2066-23.349-4.7877-24.24-4.0242-0.17313 0.14847 1.8519 0.99474 4.5 1.8806 14.632 4.8946 24.67 21.351 22.967 37.649-1.1781 11.271-9.0023 22.832-18.894 27.915l-4.2581 2.1884 5.9898-0.68179c3.2944-0.37498 9.8027-1.7867 14.463-3.1371zm-28.844-17.586c2.6246-5.9296 3.0469-6.349 8.8915-8.83 3.3748-1.4326 6.0263-3.0142 5.8922-3.5148-0.13414-0.50061-2.9184-2.094-6.1873-3.5409-5.5324-2.4488-6.1254-3.0417-8.5741-8.5741-1.4469-3.2689-2.9958-6.1351-3.4422-6.3693s-2.1032 2.4924-3.6819 6.0593c-2.7716 6.262-3.0879 6.5775-9.1885 9.167-3.4749 1.475-6.1264 3.0567-5.8922 3.5148 0.23425 0.45812 3.1316 2.0306 6.4386 3.4943 5.7241 2.5336 6.1546 2.9787 8.9678 9.2729 1.6253 3.6364 3.1948 6.3718 3.4878 6.0788 0.29303-0.29302 1.7727-3.3342 3.2882-6.7581zm143.39-18.481c6.385-3.3265 8-7.0514 8-18.451 0-8.2758-0.30466-10.085-2.1045-12.5-3.7898-5.0842-7.9009-6.7093-18.102-7.1554l-9.2932-0.40645v41.483l8.75-0.4432c6.2531-0.31673 9.8914-1.0379 12.75-2.5271z"/>
</svg>
